<svg xmlns="http://www.w3.org/2000/svg" viewBox="0 0 1096 606.56"><defs><style>.cls-1{fill:#c0001f;}</style></defs><title>logoRecurso 2</title><g id="Capa_2" data-name="Capa 2"><g id="Capa_1-2" data-name="Capa 1"><path class="cls-1" d="M423.3.88h58.26c15.47,0,25.49,7,25.49,25.38V71.61a21.54,21.54,0,0,1-14.87,21.06c6.07,1.35,17.9,7.29,17.9,23.49v55.07c0,20.24-9.7,30.51-28.82,30.51H423.31V.88Zm38.53,25.37V83.49h2.72c3,0,4.55-1.62,4.55-5.13V31.11c0-3.5-.6-4.86-4.55-4.86Zm0,82.08v67.22h3.63c4,0,4.55-1.62,4.55-5.13V113.73c0-4.06-.91-5.4-4.55-5.4Z"/><path class="cls-1" d="M554.06,201.74H515.53V.88h38.53Z"/><path class="cls-1" d="M625.06.88V31.65H597.75V80.52h23.06v31.86H597.75v58.05H626v31.32H560.13V.88Z"/><path class="cls-1" d="M670.26.88l14.87,108.8L684.83.88h31.86V201.74h-35.5L663.28,81.33l.31,120.41H631.42V.88Z"/><path class="cls-1" d="M767.66,165.57h-13l-2.13,36.17H719.42L738.23.88h48.54L807.1,201.74H769.78ZM761.29,59.73l-4.55,76.4h9.1Z"/><path class="cls-1" d="M848.06.88l.31,169h24.28l-.31,31.86h-62.5V.88Z"/><path class="cls-1" d="M0,411.2H17.32c5.26,0,9.38,2.69,9.38,10.25v50.14c0,7.56-3.83,10.81-9.18,10.81H0Zm11.86,61.14H13c1.16,0,1.44-.76,1.44-2.38V423.17c0-1.44-.28-2.21-1.44-2.21H11.86Z"/><path class="cls-1" d="M49.08,411.2v10.91H40.47v17.33h7.27v11.29H40.47V471.3h8.89v11.1H28.6V411.21H49.08Z"/><path class="cls-1" d="M60.71,250.06h66.21v35.61H99.44V342.5h22.8l.31,36.54H99.44V482.4H60.71Z"/><path class="cls-1" d="M221.85,439.61c0,29-15.93,45-41.85,45h-6.56c-27.47,0-42.15-16.23-42.15-45V293.77c0-28.72,12.49-45.9,42.15-45.9h6.25c29.66,0,42.15,18.11,42.15,45.9V439.61ZM181.25,289.4c0-4.69-1.55-6.87-4.69-6.87-2.8,0-4.37,2.2-4.37,6.87V443c0,4.06,1.57,6.24,4.37,6.24,3.13,0,4.69-2.19,4.69-6.24Z"/><path class="cls-1" d="M243.4,285.66H225.6V250.05h74.64v35.61h-17.8V482.39h-39Z"/><path class="cls-1" d="M394.54,439.61c0,29-15.93,45-41.85,45h-6.56c-27.48,0-42.16-16.23-42.16-45V293.77c0-28.72,12.49-45.9,42.16-45.9h6.24c29.67,0,42.16,18.11,42.16,45.9V439.61ZM354,289.4c0-4.69-1.57-6.87-4.69-6.87-2.81,0-4.37,2.2-4.37,6.87V443c0,4.06,1.57,6.24,4.37,6.24,3.12,0,4.69-2.19,4.69-6.24Z"/><path class="cls-1" d="M431.7,484.58c-20.92,0-30.92-17.8-30.92-38.41v-158c0-21.54,10.62-40.28,41.85-40.28H448c31.54,0,40.6,18.43,40.6,37.16v52.15H450.44V286.59c0-3.75-.94-5.94-4.68-5.94-2.82,0-4.38,1.87-4.38,5.94V445.23c0,4.69,1.88,7.19,5.62,7.19s5.62-2.5,5.62-7.19V375.91h-8.11V345.62H490.1V482.39H463.56c-.94-3.44-2.82-11.87-4.07-14.68-5.31,8.44-13.43,16.86-26.85,16.86h-.94Z"/><path class="cls-1" d="M536,482.39H496.35V250.06h61.51c13.74,0,24.67,8.75,24.67,27.8V332.5c0,15.93-7.49,22.17-14.06,25,6.57,2.82,14.69,9.37,14.69,21.55v92.12q0,7,1.87,10.31v.94H546c-1.57-2.19-2.5-5.31-2.5-9.68V385.59c0-3.44-.63-5.31-4.37-5.31H536V482.39Zm0-135.21h3.13c2.81,0,4.37-1.87,4.37-5.31V284.73c0-3.75-.63-5.32-4.07-5.32H536Z"/><path class="cls-1" d="M635.93,440.55H622.49L620.3,482.4h-34l19.35-232.34h50L676.52,482.4H638.11Zm-6.55-122.41-4.69,88.38h9.36Z"/><path class="cls-1" d="M679.33,250.06h66.2v35.61H718.05V342.5h22.79l.32,36.54h-23.1V482.4H679.33Z"/><path class="cls-1" d="M790.82,482.39H751.17V250.06h39.65ZM766.78,216h31.85l-12.49,29.66H755.23Z"/><path class="cls-1" d="M843.28,440.55H829.84l-2.19,41.85h-34L813,250.06h50L883.86,482.4h-38.4Zm-6.55-122.41L832,406.52h9.36Z"/><path class="cls-1" d="M573.67,603.84H381v-18c0-14.94,0-49.92,85.39-68.17,5.42-1.26,10.74-2.37,15.82-3.28,14.87-3,15.6-4.36,15.6-6.54v-.18c0-1.54,0-5.62-19.95-5.62-10,0-17,1.87-20.7,5.57a11.16,11.16,0,0,0-3.05,8.42v1.23h-71.3v-2c0-9.18,1.47-22.61,14.12-33.37,14-11.92,39.13-18,74.57-18h8.71c36,0,60.44,4.13,74.82,12.62,11.74,6.95,17,16.54,17,31.11v1.44c0,26.62-23.7,34.31-80.38,42.44-3,.4-5.48.82-7.85,1.25-2,.35-3.83.68-5.77.93-24.71,4.1-34.23,6.73-35.8,10.16h69.39V550.66h62Zm-190.45-2.19H571.48V552.88H513.82v13.24h-74V565c0-5.66,7.8-8.42,37.91-13.4,1.93-.26,3.77-.58,5.71-.92,2.28-.41,4.86-.87,7.93-1.26,57.92-8.31,78.49-15.64,78.49-40.28v-1.44c0-21.57-10.86-41.53-89.6-41.53h-8.71c-77.31,0-86.45,27.88-86.51,49H452a12.82,12.82,0,0,1,3.68-9c4.12-4.13,11.61-6.22,22.25-6.22,15.72,0,22.14,2.25,22.14,7.81v.18c0,4.29-3.09,5.83-17.39,8.69-5.05.9-10.34,2-15.74,3.26-83.68,17.87-83.68,51.62-83.68,66v15.77Z"/><path class="cls-1" d="M687.73,606.56h-8.52c-85.15,0-103-37.3-103-68.57v-5.45c0-31.27,17.88-68.57,103-68.57h8.52c85,0,102.85,37.3,102.85,68.57V538C790.58,569.28,772.75,606.56,687.73,606.56Zm-8.52-140.38c-66,0-100.84,22.95-100.84,66.37V538c0,54.86,54.84,66.38,100.84,66.38h8.52c45.93,0,100.66-11.52,100.66-66.38v-5.45c0-43.42-34.8-66.37-100.66-66.37Zm4.18,97c-34.54,0-36.29-23-36.29-27.58v-2.18c0-6.25,2.62-26.66,36.29-26.66s36.28,20.41,36.28,26.66v2.18C719.67,549,710.14,563.21,683.39,563.21Zm0-54.23c-30.78,0-34.1,17.12-34.1,24.47v2.18c0,12.27,9,25.39,34.1,25.39,31.63,0,34.09-19.44,34.09-25.39v-2.18C717.48,527.71,715,509,683.39,509Z"/><path class="cls-1" d="M983,603.84H790.38v-18c0-14.94,0-49.92,85.39-68.17,5.42-1.26,10.75-2.37,15.82-3.28,14.88-3,15.6-4.36,15.6-6.54v-.18c0-1.54,0-5.62-20-5.62-10,0-17,1.87-20.71,5.57a11.16,11.16,0,0,0-3,8.42v1.23h-71.3v-2c0-9.18,1.47-22.61,14.12-33.37,14-11.92,39.13-18,74.57-18h8.71c36,0,60.44,4.13,74.82,12.62,11.74,6.95,17,16.54,17,31.11v1.44c0,26.62-23.7,34.31-80.39,42.44-3,.4-5.48.82-7.85,1.25-2,.35-3.83.68-5.77.93-24.72,4.1-34.24,6.73-35.81,10.16H921V550.66h62v53.18Zm-190.44-2.19H980.83V552.88H923.17v13.24h-74V565c0-5.66,7.8-8.42,37.92-13.4,1.92-.26,3.75-.58,5.7-.92,2.28-.41,4.87-.87,7.93-1.26,57.92-8.31,78.49-15.64,78.49-40.28v-1.44c0-21.57-10.86-41.53-89.6-41.53h-8.7c-77.31,0-86.46,27.88-86.52,49h66.93a12.82,12.82,0,0,1,3.68-9c4.12-4.13,11.61-6.22,22.25-6.22,15.72,0,22.14,2.25,22.14,7.81v.18c0,4.29-3.09,5.83-17.39,8.69-5,.9-10.34,2-15.74,3.26-83.67,17.87-83.67,51.62-83.67,66v15.77Z"/><path class="cls-1" d="M151.55,197.64h-100V94.89H1.81V45.36l1.06,0C37.29,44.35,59,31,69.35,4.56l.27-.7h81.93ZM53.7,195.45h95.66V6.06H71.12C60.45,32.68,38.49,46.24,4,47.48V92.7H53.7Z"/><path class="cls-1" d="M310.63,201.51h-12.1c-48.57,0-84.19-7.6-105.88-22.6-19.39-13.4-23.46-29.73-23.46-41.07v-2.39h98.55l.32.55c2.12,3.62,9.55,12.07,32.79,12.07,21.28,0,44-8.92,44.48-33.86-20,13.58-51.72,16.49-75.12,16.49h-3.09c-37,0-64.84-5.82-82.71-17.3C168.16,103,159.92,87.8,159.92,68.32V66c0-20.49,7.85-35,24.69-45.64C206.3,6.66,242.38,0,294.94,0h12.35c92.53,0,141.45,32.7,141.45,94.58v6.18c0,25.95-6.8,46.37-20.78,62.42C405.8,188.62,366.33,201.51,310.63,201.51ZM171.39,137.64v.2c0,10.81,3.9,26.41,22.52,39.27,21.32,14.74,56.53,22.21,104.63,22.21h12.11c55,0,94-12.64,115.66-37.58,13.62-15.63,20.23-35.58,20.23-61V94.58c0-23.72-7.35-43.22-21.86-57.95-22.52-22.85-62-34.44-117.39-34.44H294.94c-52.13,0-87.83,6.55-109.15,20C169.64,32.41,162.13,46.32,162.13,66v2.33c0,39.94,35.33,60.18,105,60.18h3.09c23.76,0,56.17-3,75.57-17.29l1.74-1.28v3.45c0,17.83-12.26,36.88-46.68,36.88-23.31,0-31.65-8.42-34.34-12.62ZM301.63,85.11c-27.63,0-40.49-5.17-40.49-16.29v-.25C261.14,57,273.24,52,301.63,52,331,52,342.9,56.82,342.9,68.57v.25C342.9,76.4,338.21,85.11,301.63,85.11Zm0-30.9c-33.95,0-38.3,7.67-38.3,14.35v.25c0,3.48,0,14.1,38.3,14.1,34.64,0,39.08-7.54,39.08-14.1v-.25C340.71,61.11,336,54.21,301.63,54.21Z"/><path class="cls-1" d="M1096,603.62h-72.38V529.29h-36V493.45l.77,0c24.9-.71,40.63-10.35,48.09-29.49l.2-.51H1096ZM1025.21,602h69.2V465h-56.6c-7.72,19.26-23.61,29.07-48.56,30V527.7h36Z"/></g></g></svg>