<?xml version="1.0" encoding="utf-8"?>
<!-- Generator: Adobe Illustrator 24.0.3, SVG Export Plug-In . SVG Version: 6.00 Build 0)  -->
<svg version="1.1" id="Capa_1" xmlns="http://www.w3.org/2000/svg" xmlns:xlink="http://www.w3.org/1999/xlink" x="0px" y="0px"
	 viewBox="0 0 509.06 81.15" style="enable-background:new 0 0 509.06 81.15;" xml:space="preserve">
<style type="text/css">
	.st0{fill:#FFFFFF;}
</style>
<g id="XMLID_2_">
	<g>
		<path id="XMLID_308_" class="st0" d="M126.34,60.63c-0.54,0.41-1.17,0.76-1.91,1.08c-0.72,0.3-1.54,0.59-2.42,0.83
			c-0.89,0.27-1.8,0.39-2.73,0.39c-1.98,0-3.76-0.47-5.33-1.42c-1.56-0.94-2.85-2.37-3.83-4.29c-0.98-1.92-1.64-4.28-2-7.06
			c-0.34-2.77-0.3-5.93,0.13-9.49c0.44-3.55,1.18-6.72,2.21-9.5c1.03-2.78,2.29-5.12,3.77-7.04c1.49-1.94,3.15-3.39,5.01-4.39
			c1.85-1,3.82-1.51,5.9-1.51c1.66,0,3.15,0.28,4.45,0.86c1.3,0.56,2.42,1.24,3.39,2.03c-0.27,0.58-0.54,1.38-0.78,2.38
			c-0.25,1-0.46,1.85-0.61,2.51l-0.24,0.12c-0.19-0.51-0.49-1.05-0.84-1.7c-0.38-0.63-0.84-1.22-1.36-1.81
			c-0.54-0.6-1.16-1.08-1.86-1.48c-0.71-0.4-1.51-0.59-2.43-0.59c-1.48,0-2.9,0.4-4.26,1.19c-1.38,0.8-2.63,2.03-3.77,3.68
			c-1.14,1.65-2.14,3.74-2.98,6.26c-0.84,2.53-1.47,5.53-1.89,8.99c-0.42,3.47-0.53,6.47-0.31,8.99c0.21,2.53,0.69,4.64,1.43,6.28
			c0.75,1.64,1.7,2.87,2.87,3.66c1.18,0.8,2.51,1.19,3.99,1.19c0.9,0,1.75-0.18,2.57-0.55c0.81-0.38,1.56-0.82,2.27-1.35
			c0.71-0.53,1.35-1.09,1.96-1.69c0.58-0.6,1.08-1.13,1.49-1.6l0.12,0.24l-0.79,3.72C127.28,59.88,126.87,60.24,126.34,60.63"/>
		<path id="XMLID_307_" class="st0" d="M135.88,27.07c0.26-2.67,0.53-5.35,0.79-8.01c1.12,0.08,2.23,0.15,3.34,0.21
			c1.11,0.07,2.24,0.1,3.36,0.1c1.13,0,2.25-0.03,3.37-0.1c1.11-0.06,2.24-0.13,3.39-0.21c-0.16,0.62-0.27,1.24-0.35,1.87
			c-0.08,0.62-0.11,1.25-0.11,1.87c-0.81-0.08-1.53-0.16-2.18-0.25c-0.66-0.09-1.36-0.16-2.09-0.26c-0.73-0.08-1.54-0.15-2.41-0.22
			c-0.86-0.07-1.92-0.09-3.15-0.09c-0.19,1.34-0.37,2.6-0.57,3.81c-0.19,1.22-0.38,2.6-0.56,4.14c-0.21,1.62-0.39,3.22-0.57,4.76
			c-0.18,1.56-0.3,2.71-0.41,3.51c1.1,0,2.09-0.02,2.98-0.06c0.89-0.03,1.7-0.09,2.44-0.15c0.73-0.08,1.41-0.13,2.04-0.2
			c0.62-0.06,1.22-0.14,1.78-0.21c-0.16,0.62-0.28,1.26-0.36,1.94c-0.08,0.63-0.11,1.25-0.11,1.87c-0.64-0.12-1.38-0.22-2.25-0.31
			c-0.86-0.09-1.72-0.13-2.58-0.16c-0.87-0.01-1.68-0.04-2.43-0.06c-0.78-0.03-1.39-0.03-1.84-0.03c-0.03,0.38-0.1,0.78-0.16,1.22
			c-0.07,0.44-0.15,1-0.22,1.66l-0.3,2.43l-0.46,3.77c-0.29,2.39-0.53,4.36-0.7,5.88c-0.17,1.56-0.3,2.73-0.38,3.52h2.64
			c0.96,0,1.9-0.03,2.82-0.09c0.93-0.07,1.8-0.14,2.63-0.25c0.83-0.11,1.56-0.26,2.19-0.47c-0.08,0.28-0.16,0.6-0.22,0.96
			c-0.05,0.37-0.09,0.68-0.13,0.97c-0.08,0.68-0.11,1.21-0.09,1.64c-1.13-0.08-2.24-0.12-3.36-0.12h-3.42h-3.43
			c-1.13,0-2.28,0.04-3.44,0.12c0.4-2.68,0.8-5.34,1.18-7.99c0.4-2.66,0.76-5.37,1.1-8.13l1.32-10.78
			C135.32,32.46,135.62,29.74,135.88,27.07"/>
		<path id="XMLID_306_" class="st0" d="M163.05,45.85c-2.56-5.84-5.11-11.65-7.67-17.4c-0.17,1.16-0.39,2.73-0.65,4.7
			c-0.26,1.95-0.61,4.64-1.02,8.02c-0.11,0.87-0.23,1.97-0.39,3.26c-0.13,1.3-0.3,2.66-0.46,4.08c-0.16,1.42-0.32,2.86-0.47,4.32
			c-0.15,1.47-0.31,2.82-0.42,4.06c-0.14,1.27-0.24,2.36-0.33,3.3c-0.09,0.94-0.14,1.58-0.17,1.92c-0.38-0.08-0.82-0.12-1.29-0.12
			c-0.5,0-0.97,0.04-1.41,0.12c0.1-0.42,0.26-1.2,0.45-2.32c0.2-1.14,0.43-2.48,0.67-4.05c0.24-1.57,0.5-3.27,0.78-5.1
			c0.3-1.85,0.57-3.68,0.84-5.52c0.27-1.84,0.51-3.64,0.76-5.39c0.23-1.77,0.44-3.33,0.6-4.71c0.5-4.01,0.93-7.46,1.26-10.34
			c0.35-2.88,0.57-5.03,0.71-6.46h0.6c1.2,2.76,2.47,5.72,3.82,8.88c1.36,3.15,2.72,6.27,4.07,9.34c1.34,3.07,2.62,5.98,3.83,8.71
			c1.21,2.74,2.29,5.08,3.2,7l1.04-8.52c0.53-4.4,1.05-8.67,1.52-12.82c0.47-4.16,0.87-8.08,1.19-11.75
			c0.48,0.19,0.9,0.31,1.26,0.31c0.3,0,0.71-0.11,1.24-0.31c-0.16,0.91-0.39,2.29-0.69,4.14c-0.28,1.83-0.59,3.8-0.91,5.88
			c-0.31,2.09-0.62,4.14-0.92,6.14c-0.29,2-0.52,3.62-0.67,4.83c-0.12,1.04-0.28,2.3-0.46,3.76c-0.17,1.43-0.35,2.91-0.51,4.46
			c-0.19,1.53-0.36,3.1-0.54,4.67c-0.17,1.57-0.34,3.02-0.49,4.39c-0.17,1.36-0.3,2.54-0.42,3.54c-0.11,0.92-0.2,1.61-0.26,2.07
			h-0.53C167.98,57.37,165.6,51.68,163.05,45.85"/>
		<path id="XMLID_305_" class="st0" d="M187.44,22.3c-0.66,0-1.34,0.01-2.06,0.05c-0.71,0.01-1.44,0.05-2.16,0.12
			c-0.72,0.06-1.43,0.13-2.1,0.22c-0.68,0.09-1.29,0.19-1.83,0.31c0.21-0.75,0.36-1.42,0.43-2c0.05-0.46,0.08-1.11,0.05-1.94
			c1.65,0.08,3.26,0.15,4.84,0.21c1.58,0.07,3.19,0.1,4.85,0.1c1.66,0,3.28-0.03,4.87-0.1c1.6-0.06,3.22-0.13,4.9-0.21
			c-0.23,0.82-0.38,1.49-0.44,2c-0.07,0.53-0.09,1.18-0.05,1.93c-0.51-0.12-1.1-0.22-1.75-0.31c-0.66-0.08-1.34-0.16-2.05-0.22
			c-0.7-0.07-1.42-0.11-2.13-0.12c-0.72-0.04-1.4-0.05-2.05-0.05c-0.61,4.31-1.18,8.64-1.71,12.98l-1.32,10.78
			c-0.33,2.76-0.63,5.47-0.91,8.15c-0.27,2.67-0.52,5.31-0.77,7.9c-0.57-0.08-1.17-0.12-1.83-0.12c-0.65,0-1.27,0.04-1.86,0.12
			c0.4-2.59,0.79-5.23,1.17-7.9c0.4-2.68,0.76-5.39,1.1-8.15l1.32-10.78C186.5,30.94,186.99,26.61,187.44,22.3"/>
		<path id="XMLID_302_" class="st0" d="M200.72,35.28c0.34-2.75,0.64-5.47,0.9-8.11c0.28-2.65,0.53-5.36,0.8-8.11
			c0.71,0.08,1.42,0.15,2.12,0.21c0.69,0.07,1.4,0.1,2.13,0.1c0.73,0,1.45-0.06,2.17-0.16c0.71-0.11,1.43-0.15,2.17-0.15
			c1.05,0,2.03,0.16,2.95,0.5c0.9,0.32,1.68,0.88,2.31,1.65c0.61,0.78,1.06,1.79,1.31,3.05c0.26,1.25,0.28,2.82,0.05,4.69
			c-0.24,2-0.73,3.73-1.45,5.17c-0.7,1.45-1.52,2.64-2.41,3.58c-0.9,0.93-1.82,1.67-2.78,2.19c-0.96,0.53-1.81,0.88-2.56,1.04
			c0.23,0.62,0.54,1.5,0.92,2.62c0.39,1.13,0.82,2.38,1.32,3.74c0.49,1.36,0.99,2.77,1.51,4.25c0.53,1.49,1.02,2.92,1.52,4.27
			c0.48,1.36,0.94,2.6,1.39,3.73c0.43,1.12,0.8,1.98,1.07,2.57c-0.37-0.08-0.73-0.12-1.12-0.12h-1.14h-1.09
			c-0.37,0-0.75,0.04-1.11,0.12c-0.26-0.88-0.67-2.2-1.22-3.95c-0.56-1.75-1.18-3.64-1.85-5.64c-0.69-2.02-1.39-4-2.12-6
			c-0.72-1.98-1.4-3.66-2.04-5.04h-1.44l-0.56,4.58c-0.34,2.76-0.64,5.47-0.9,8.15c-0.27,2.67-0.52,5.31-0.76,7.9
			c-0.58-0.08-1.19-0.12-1.85-0.12c-0.65,0-1.27,0.04-1.85,0.12c0.39-2.59,0.78-5.23,1.17-7.9c0.4-2.68,0.75-5.39,1.09-8.15
			L200.72,35.28z M203.37,38.85c0.34,0.13,0.71,0.21,1.12,0.25c0.41,0.05,0.86,0.06,1.37,0.06c0.77,0,1.61-0.14,2.48-0.43
			c0.89-0.3,1.72-0.81,2.51-1.54c0.79-0.74,1.49-1.72,2.12-2.95c0.61-1.23,1.05-2.79,1.27-4.68c0.19-1.63,0.18-2.98-0.06-4.03
			c-0.24-1.07-0.59-1.91-1.1-2.55c-0.5-0.61-1.07-1.05-1.72-1.28c-0.65-0.23-1.3-0.34-1.96-0.34c-0.88,0-1.61,0.04-2.19,0.1
			c-0.59,0.06-1.09,0.12-1.5,0.21c-0.34,2.3-0.67,4.58-1,6.83c-0.32,2.26-0.62,4.51-0.9,6.77L203.37,38.85z"/>
		<path id="XMLID_299_" class="st0" d="M219.35,40.67c0.45-3.55,1.16-6.72,2.2-9.5c1.03-2.78,2.3-5.12,3.78-7.04
			c1.48-1.93,3.14-3.39,5.01-4.39c1.86-1,3.81-1.51,5.88-1.51c2.08,0,3.93,0.51,5.55,1.51c1.61,1,2.92,2.47,3.92,4.39
			c1.02,1.92,1.69,4.26,2.05,7.04c0.35,2.78,0.3,5.95-0.13,9.5c-0.44,3.56-1.18,6.72-2.21,9.49c-1.04,2.78-2.28,5.14-3.77,7.06
			c-1.49,1.92-3.14,3.35-4.99,4.29c-1.85,0.95-3.82,1.42-5.91,1.42c-2.05,0-3.89-0.47-5.53-1.42c-1.61-0.94-2.93-2.37-3.93-4.29
			c-1-1.92-1.68-4.28-2.04-7.06C218.87,47.38,218.91,44.23,219.35,40.67 M243.9,40.67c0.42-3.46,0.54-6.46,0.32-8.99
			c-0.22-2.52-0.69-4.61-1.44-6.26c-0.74-1.65-1.7-2.88-2.86-3.68c-1.17-0.78-2.51-1.19-3.98-1.19c-1.46,0-2.87,0.4-4.23,1.19
			c-1.37,0.8-2.63,2.03-3.78,3.68c-1.14,1.65-2.13,3.74-2.96,6.26c-0.84,2.53-1.47,5.53-1.91,8.99c-0.42,3.47-0.53,6.47-0.31,8.99
			c0.22,2.53,0.7,4.64,1.44,6.28c0.75,1.64,1.7,2.87,2.87,3.66c1.18,0.8,2.49,1.19,3.95,1.19c1.48,0,2.91-0.39,4.28-1.19
			c1.37-0.78,2.63-2.01,3.77-3.66c1.13-1.64,2.14-3.75,2.96-6.28C242.85,47.14,243.47,44.14,243.9,40.67"/>
		<path id="XMLID_296_" class="st0" d="M263.11,35.28c0.33-2.75,0.65-5.47,0.9-8.11c0.27-2.65,0.53-5.36,0.8-8.11
			c0.94,0.08,1.88,0.15,2.81,0.21c0.93,0.07,1.88,0.1,2.84,0.1c0.95,0,1.91-0.06,2.86-0.16c0.96-0.11,1.91-0.15,2.86-0.15
			c2.21,0,4.04,0.47,5.5,1.44c1.45,0.95,2.58,2.33,3.37,4.1c0.77,1.78,1.26,3.94,1.41,6.52c0.14,2.57,0.02,5.46-0.37,8.68
			c-0.52,4.19-1.37,7.71-2.6,10.57c-1.23,2.86-2.61,5.17-4.17,6.92c-1.56,1.76-3.2,3.01-4.9,3.73c-1.72,0.74-3.31,1.1-4.8,1.1
			c-0.85,0-1.68-0.02-2.52-0.07c-0.83-0.05-1.67-0.05-2.52-0.05h-2.52c-0.83,0-1.69,0.04-2.54,0.12c0.39-2.59,0.78-5.23,1.17-7.9
			c0.39-2.68,0.75-5.39,1.09-8.15L263.11,35.28z M264.88,46.06c-0.56,4.51-1.03,8.95-1.41,13.28c0.5,0.22,1.2,0.37,2.09,0.48
			c0.89,0.11,1.81,0.14,2.77,0.14c1.39,0,2.8-0.27,4.26-0.8c1.44-0.55,2.81-1.58,4.08-3.08c1.28-1.51,2.42-3.56,3.44-6.17
			c1.01-2.61,1.77-5.98,2.27-10.12c0.46-3.64,0.55-6.62,0.29-8.96c-0.25-2.33-0.76-4.19-1.54-5.55c-0.77-1.35-1.78-2.29-3.02-2.82
			c-1.25-0.53-2.65-0.79-4.21-0.79c-1.12,0-2.19,0.06-3.19,0.19c-0.99,0.13-1.89,0.26-2.68,0.43c-0.33,2.02-0.64,4.11-0.95,6.3
			c-0.3,2.2-0.6,4.42-0.88,6.67L264.88,46.06z"/>
		<path id="XMLID_295_" class="st0" d="M292.29,27.07c0.26-2.67,0.52-5.35,0.77-8.01c1.13,0.08,2.23,0.15,3.35,0.21
			c1.11,0.07,2.24,0.1,3.36,0.1c1.13,0,2.26-0.03,3.37-0.1c1.12-0.06,2.25-0.13,3.38-0.21c-0.15,0.62-0.27,1.24-0.34,1.87
			c-0.07,0.62-0.12,1.25-0.12,1.87c-0.8-0.08-1.51-0.16-2.18-0.25c-0.65-0.09-1.35-0.16-2.07-0.26c-0.74-0.08-1.54-0.15-2.41-0.22
			c-0.87-0.07-1.92-0.09-3.16-0.09c-0.18,1.34-0.38,2.6-0.56,3.81c-0.18,1.22-0.37,2.6-0.57,4.14c-0.19,1.62-0.38,3.22-0.55,4.76
			c-0.19,1.56-0.32,2.71-0.41,3.51c1.1,0,2.1-0.02,2.98-0.06c0.89-0.03,1.7-0.09,2.44-0.15c0.72-0.08,1.41-0.13,2.03-0.2
			c0.63-0.06,1.22-0.14,1.78-0.21c-0.15,0.62-0.25,1.26-0.35,1.94c-0.08,0.63-0.12,1.25-0.12,1.87c-0.64-0.12-1.38-0.22-2.24-0.31
			c-0.86-0.09-1.72-0.13-2.58-0.16c-0.87-0.01-1.68-0.04-2.45-0.06c-0.76-0.03-1.36-0.03-1.82-0.03c-0.04,0.38-0.11,0.78-0.17,1.22
			c-0.06,0.44-0.14,1-0.22,1.66l-0.32,2.43l-0.45,3.77c-0.3,2.39-0.53,4.36-0.7,5.88c-0.19,1.56-0.31,2.73-0.37,3.52h2.63
			c0.96,0,1.91-0.03,2.83-0.09c0.92-0.07,1.81-0.14,2.63-0.25c0.83-0.11,1.56-0.26,2.19-0.47c-0.1,0.28-0.17,0.6-0.22,0.96
			c-0.05,0.37-0.09,0.68-0.13,0.97c-0.08,0.68-0.11,1.21-0.08,1.64c-1.12-0.08-2.25-0.12-3.36-0.12h-3.42h-3.44
			c-1.12,0-2.27,0.04-3.43,0.12c0.4-2.68,0.79-5.34,1.18-7.99c0.39-2.66,0.75-5.37,1.1-8.13l1.31-10.78
			C291.71,32.46,292.01,29.74,292.29,27.07"/>
		<path id="XMLID_294_" class="st0" d="M320.7,27.16c0.26-2.65,0.52-5.36,0.79-8.11c0.32,0.08,0.62,0.15,0.92,0.21
			c0.3,0.07,0.59,0.1,0.89,0.1c0.31,0,0.6-0.03,0.92-0.1c0.3-0.06,0.62-0.13,0.97-0.21c-0.42,2.75-0.82,5.46-1.2,8.11
			c-0.4,2.65-0.76,5.36-1.1,8.12c-0.65,5.26-1.19,9.82-1.64,13.69c-0.45,3.87-0.85,7.33-1.2,10.39c1.79,0,3.5-0.04,5.15-0.11
			c1.64-0.07,3.44-0.3,5.37-0.71c-0.22,0.75-0.37,1.37-0.43,1.88c-0.06,0.46-0.06,1.02-0.02,1.69c-1.15-0.08-2.3-0.12-3.45-0.12
			h-3.47h-3.49c-1.12,0-2.28,0.04-3.5,0.12c0.39-2.59,0.8-5.23,1.17-7.9c0.4-2.68,0.76-5.39,1.1-8.15l1.33-10.78
			C320.14,32.53,320.43,29.81,320.7,27.16"/>
		<path id="XMLID_291_" class="st0" d="M356.2,62.11c-0.34-0.08-0.67-0.12-0.97-0.12h-1h-1.01c-0.32,0-0.65,0.04-1.01,0.12
			c-0.06-0.96-0.15-2.13-0.29-3.48c-0.13-1.36-0.3-2.78-0.48-4.27c-0.18-1.48-0.35-2.98-0.55-4.52c-0.19-1.51-0.36-2.97-0.51-4.35
			c-0.81-0.04-1.61-0.07-2.44-0.09c-0.82-0.02-1.66-0.02-2.49-0.02c-0.78,0-1.54,0-2.29,0.02c-0.76,0.02-1.54,0.06-2.33,0.09
			c-1.2,3.26-2.31,6.37-3.33,9.32c-1.01,2.94-1.81,5.37-2.36,7.3c-0.42-0.08-0.89-0.12-1.38-0.12c-0.51,0-0.98,0.04-1.42,0.12
			c2.94-7.31,5.81-14.59,8.63-21.82c2.83-7.23,5.68-14.59,8.55-22.07h0.72c0.3,2.42,0.64,5.06,1,7.87c0.35,2.82,0.72,5.68,1.1,8.56
			c0.37,2.87,0.76,5.75,1.13,8.58c0.38,2.85,0.74,5.48,1.09,7.93c0.34,2.44,0.65,4.63,0.93,6.54C355.76,59.65,356,61.1,356.2,62.11
			 M341.89,42.61c0.66,0,1.34,0.02,2.03,0.06c0.7,0.05,1.37,0.07,2.03,0.07c0.7,0,1.41-0.02,2.12-0.04
			c0.72-0.02,1.42-0.04,2.13-0.09l-2.24-15.91L341.89,42.61z"/>
		<path id="XMLID_290_" class="st0" d="M374.32,27.16c0.26-2.65,0.53-5.36,0.79-8.11c0.3,0.08,0.62,0.15,0.92,0.21
			c0.3,0.07,0.6,0.1,0.89,0.1c0.3,0,0.61-0.03,0.92-0.1c0.31-0.06,0.63-0.13,0.97-0.21c-0.42,2.75-0.82,5.46-1.21,8.11
			c-0.39,2.65-0.75,5.36-1.1,8.12l-1.32,10.78c-0.33,2.76-0.65,5.47-0.9,8.15c-0.26,2.67-0.51,5.31-0.78,7.9
			c-0.56-0.08-1.17-0.12-1.82-0.12c-0.65,0-1.27,0.04-1.85,0.12c0.39-2.59,0.78-5.23,1.18-7.9c0.39-2.68,0.75-5.39,1.09-8.15
			l1.34-10.78C373.75,32.53,374.05,29.81,374.32,27.16"/>
		<path id="XMLID_289_" class="st0" d="M390.53,35.53c1.08,5.6,2.23,11.34,3.44,17.23c0.34-0.79,0.85-1.93,1.51-3.41
			c0.66-1.48,1.43-3.18,2.29-5.1c0.86-1.92,1.79-4.01,2.78-6.23c0.99-2.25,1.99-4.51,3.02-6.81c1.02-2.3,2.03-4.57,3.03-6.78
			c1-2.22,1.94-4.28,2.8-6.21h0.49c-0.22,4.01-0.43,7.9-0.64,11.63c-0.23,3.73-0.44,7.42-0.62,11.04c-0.2,3.62-0.38,7.18-0.56,10.72
			c-0.18,3.52-0.34,7.04-0.47,10.5c-0.29-0.08-0.57-0.12-0.86-0.12h-0.89h-0.88c-0.28,0-0.59,0.04-0.9,0.12
			c0.41-5.56,0.78-10.96,1.15-16.17c0.36-5.22,0.67-10.55,0.94-15.99h-0.07c-2.38,5.26-4.73,10.5-7.04,15.7
			c-2.31,5.2-4.57,10.64-6.77,16.34h-0.34c-0.86-5.28-1.79-10.54-2.78-15.83c-1-5.29-2-10.69-2.97-16.21h-0.07
			c-0.49,2.6-1.04,5.39-1.62,8.44c-0.59,3.03-1.15,6-1.68,8.96c-0.54,2.95-1.04,5.73-1.48,8.34c-0.45,2.61-0.78,4.75-0.98,6.43
			c-0.39-0.08-0.82-0.12-1.3-0.12c-0.47,0-0.92,0.04-1.34,0.12c0.75-3.39,1.53-6.96,2.34-10.72c0.81-3.76,1.62-7.53,2.41-11.34
			c0.8-3.8,1.56-7.55,2.29-11.26c0.73-3.69,1.4-7.22,2.01-10.57h0.64C388.4,24.17,389.44,29.93,390.53,35.53"/>
		<path id="XMLID_286_" class="st0" d="M433.81,62.11c-0.34-0.08-0.67-0.12-0.98-0.12h-1h-1.01c-0.3,0-0.65,0.04-1.01,0.12
			c-0.05-0.96-0.16-2.13-0.29-3.48c-0.14-1.36-0.29-2.78-0.47-4.27c-0.18-1.48-0.37-2.98-0.56-4.52c-0.2-1.51-0.36-2.97-0.52-4.35
			c-0.81-0.04-1.61-0.07-2.44-0.09c-0.83-0.02-1.66-0.02-2.48-0.02c-0.79,0-1.55,0-2.3,0.02c-0.76,0.02-1.53,0.06-2.32,0.09
			c-1.2,3.26-2.31,6.37-3.33,9.32c-1.01,2.94-1.8,5.37-2.36,7.3c-0.42-0.08-0.88-0.12-1.38-0.12c-0.51,0-0.97,0.04-1.41,0.12
			c2.94-7.31,5.81-14.59,8.63-21.82c2.83-7.23,5.68-14.59,8.56-22.07h0.71c0.31,2.42,0.64,5.06,1,7.87
			c0.35,2.82,0.71,5.68,1.09,8.56c0.38,2.87,0.76,5.75,1.14,8.58c0.37,2.85,0.74,5.48,1.08,7.93c0.34,2.44,0.65,4.63,0.93,6.54
			C433.37,59.65,433.61,61.1,433.81,62.11 M419.5,42.61c0.66,0,1.34,0.02,2.03,0.06c0.7,0.05,1.37,0.07,2.04,0.07
			c0.69,0,1.4-0.02,2.11-0.04c0.71-0.02,1.42-0.04,2.12-0.09l-2.23-15.91L419.5,42.61z"/>
		<path id="XMLID_285_" class="st0" d="M460.69,24.43c-0.48-0.74-1.02-1.4-1.64-1.97c-0.62-0.57-1.34-1.02-2.13-1.39
			c-0.8-0.34-1.68-0.52-2.64-0.52c-1.56,0-3.06,0.4-4.5,1.19c-1.44,0.8-2.76,2.03-3.95,3.68c-1.2,1.65-2.23,3.74-3.11,6.26
			c-0.88,2.53-1.52,5.53-1.95,8.99c-0.38,3.06-0.47,5.81-0.27,8.28c0.19,2.47,0.67,4.54,1.43,6.23c0.76,1.7,1.79,3,3.07,3.92
			c1.28,0.92,2.8,1.38,4.56,1.38c0.53,0,1.09-0.04,1.68-0.12c0.59-0.08,1.16-0.21,1.73-0.39c0.56-0.15,1.08-0.37,1.59-0.62
			c0.49-0.25,0.91-0.53,1.3-0.87c0.17-1.26,0.34-2.51,0.52-3.76c0.17-1.25,0.33-2.53,0.48-3.82c0.18-1.46,0.34-2.93,0.49-4.38
			c0.14-1.46,0.26-2.87,0.38-4.21c0.6,0.21,1.19,0.31,1.78,0.31c0.27,0,0.55-0.02,0.84-0.05c0.28-0.06,0.55-0.14,0.81-0.26
			c-0.16,0.97-0.39,2.47-0.66,4.55c-0.29,2.07-0.62,4.79-1.05,8.17c-0.09,0.85-0.2,1.69-0.29,2.55c-0.09,0.85-0.18,1.7-0.29,2.52
			c-0.56,0.34-1.26,0.69-2.11,1.05c-0.82,0.35-1.72,0.65-2.62,0.87c-0.92,0.23-1.85,0.45-2.76,0.64c-0.91,0.18-1.73,0.28-2.46,0.28
			c-2.25,0-4.19-0.45-5.89-1.34c-1.69-0.92-3.04-2.29-4.06-4.17c-1.02-1.88-1.71-4.23-2.04-7.02c-0.33-2.8-0.28-6.04,0.18-9.72
			c0.43-3.55,1.17-6.72,2.21-9.5c1.05-2.78,2.33-5.12,3.85-7.04c1.52-1.93,3.24-3.39,5.2-4.39c1.95-1,4.03-1.51,6.24-1.51
			c1.28,0,2.41,0.12,3.37,0.34c0.97,0.24,1.8,0.55,2.52,0.92c0.72,0.38,1.34,0.77,1.88,1.18c0.53,0.42,0.98,0.82,1.39,1.2
			c-0.27,0.58-0.55,1.34-0.81,2.26c-0.28,0.92-0.49,1.77-0.64,2.57h-0.46C461.54,25.94,461.17,25.19,460.69,24.43"/>
		<path id="XMLID_284_" class="st0" d="M468.36,27.07c0.26-2.67,0.53-5.35,0.78-8.01c1.11,0.08,2.23,0.15,3.35,0.21
			c1.1,0.07,2.23,0.1,3.36,0.1c1.13,0,2.25-0.03,3.37-0.1c1.12-0.06,2.24-0.13,3.39-0.21c-0.15,0.62-0.27,1.24-0.34,1.87
			c-0.08,0.62-0.12,1.25-0.12,1.87c-0.79-0.08-1.52-0.16-2.17-0.25c-0.66-0.09-1.35-0.16-2.08-0.26c-0.74-0.08-1.54-0.15-2.41-0.22
			c-0.87-0.07-1.93-0.09-3.16-0.09c-0.19,1.34-0.38,2.6-0.57,3.81c-0.18,1.22-0.38,2.6-0.57,4.14c-0.21,1.62-0.39,3.22-0.57,4.76
			c-0.17,1.56-0.3,2.71-0.41,3.51c1.1,0,2.11-0.02,3-0.06c0.89-0.03,1.69-0.09,2.43-0.15c0.73-0.08,1.41-0.13,2.04-0.2
			c0.62-0.06,1.22-0.14,1.78-0.21c-0.16,0.62-0.27,1.26-0.36,1.94c-0.08,0.63-0.12,1.25-0.12,1.87c-0.64-0.12-1.38-0.22-2.24-0.31
			c-0.85-0.09-1.72-0.13-2.58-0.16c-0.86-0.01-1.68-0.04-2.45-0.06c-0.75-0.03-1.36-0.03-1.82-0.03c-0.05,0.38-0.09,0.78-0.16,1.22
			c-0.07,0.44-0.15,1-0.23,1.66l-0.29,2.43l-0.46,3.77c-0.3,2.39-0.54,4.36-0.71,5.88c-0.18,1.56-0.3,2.73-0.38,3.52h2.64
			c0.95,0,1.89-0.03,2.81-0.09c0.93-0.07,1.8-0.14,2.64-0.25c0.83-0.11,1.56-0.26,2.19-0.47c-0.08,0.28-0.15,0.6-0.21,0.96
			c-0.06,0.37-0.11,0.68-0.14,0.97c-0.08,0.68-0.11,1.21-0.09,1.64c-1.12-0.08-2.25-0.12-3.36-0.12h-3.42h-3.43
			c-1.14,0-2.29,0.04-3.45,0.12c0.41-2.68,0.8-5.34,1.19-7.99c0.38-2.66,0.75-5.37,1.09-8.13l1.33-10.78
			C467.79,32.46,468.09,29.74,468.36,27.07"/>
		<path id="XMLID_283_" class="st0" d="M495.51,45.85c-2.55-5.84-5.1-11.65-7.66-17.4c-0.17,1.16-0.39,2.73-0.64,4.7
			c-0.28,1.95-0.62,4.64-1.03,8.02c-0.11,0.87-0.23,1.97-0.39,3.26c-0.13,1.3-0.29,2.66-0.45,4.08c-0.16,1.42-0.31,2.86-0.48,4.32
			c-0.15,1.47-0.29,2.82-0.42,4.06c-0.12,1.27-0.24,2.36-0.33,3.3c-0.08,0.94-0.14,1.58-0.16,1.92c-0.38-0.08-0.81-0.12-1.29-0.12
			c-0.5,0-0.98,0.04-1.41,0.12c0.11-0.42,0.26-1.2,0.46-2.32c0.2-1.14,0.42-2.48,0.66-4.05c0.24-1.57,0.51-3.27,0.8-5.1
			c0.28-1.85,0.57-3.68,0.83-5.52c0.26-1.84,0.51-3.64,0.75-5.39c0.24-1.77,0.44-3.33,0.61-4.71c0.5-4.01,0.91-7.46,1.26-10.34
			c0.35-2.88,0.57-5.03,0.7-6.46h0.6c1.2,2.76,2.48,5.72,3.84,8.88c1.36,3.15,2.71,6.27,4.06,9.34c1.34,3.07,2.62,5.98,3.83,8.71
			c1.2,2.74,2.27,5.08,3.18,7l1.04-8.52c0.55-4.4,1.06-8.67,1.53-12.82c0.47-4.16,0.88-8.08,1.2-11.75
			c0.47,0.19,0.88,0.31,1.24,0.31c0.3,0,0.71-0.11,1.24-0.31c-0.16,0.91-0.39,2.29-0.68,4.14c-0.28,1.83-0.59,3.8-0.9,5.88
			c-0.33,2.09-0.63,4.14-0.93,6.14c-0.29,2-0.53,3.62-0.67,4.83c-0.13,1.04-0.29,2.3-0.46,3.76c-0.18,1.43-0.36,2.91-0.53,4.46
			c-0.19,1.53-0.35,3.1-0.53,4.67c-0.2,1.57-0.36,3.02-0.51,4.39c-0.15,1.36-0.28,2.54-0.41,3.54c-0.11,0.92-0.2,1.61-0.26,2.07
			h-0.53C500.45,57.37,498.08,51.68,495.51,45.85"/>
		<path id="XMLID_282_" class="st0" d="M49.99,11.65l0.15,0.16l0.47,0.31c0.76,0.46,1.38,0.76,2.3,0.93
			c0.93,0.15,1.54,0.15,2.47,0.15c0.61-0.15,1.07-0.31,1.53-0.62c0.78-0.61,1.23-1.38,1.38-2.3c0.15-0.77,0.31-1.38,0.46-2.15
			c0.16-0.45,0.31-0.76,0.62-1.21c0.16-0.47,0.31-1.08,0.31-1.7c-0.15-0.77-0.31-1.53-0.62-2.29c0-0.47-0.16-0.78-0.16-1.39
			c-0.16-0.3-0.16-0.46-0.31-0.77c-0.31-0.3-0.47-0.61-0.91-0.77h-0.16c-0.15,0-0.31,0.16-0.31,0.16c-0.31,0.16-0.47,0.16-0.62,0.31
			c-0.62,0.3-1.08,0.61-1.54,0.92c-0.93,0.31-1.54,0.76-2.16,1.37c-0.77,0.77-1.38,1.39-1.99,2.31c-0.93,1.21-1.39,2.3-1.69,3.82
			c-0.15,0.32-0.15,0.61-0.15,1.07v0.17c0,0.15,0.15,0.15,0.15,0.29C49.38,10.89,49.68,11.35,49.99,11.65"/>
		<path id="XMLID_281_" class="st0" d="M84.14,24.52v-0.31V23.6c0-0.46-0.16-0.92-0.46-1.38c-0.15,0-0.15-0.15-0.31-0.15
			c0,0,0-0.16-0.16-0.16h-0.46c-0.92-0.14-1.69,0-2.62,0.16c-0.92,0.15-1.69,0.46-2.76,0.77c-0.77,0.14-1.55,0.45-2.32,1.07
			c-0.61,0.46-1.06,1.08-1.54,1.84c-0.3,0.3-0.45,0.76-0.76,1.06c-0.31,0.47-0.47,0.93-0.47,1.39v1.23v0.6
			c-0.14,0.47-0.3,1.08-0.3,1.53v0.92v0.16c0,0.14,0.16,0.14,0.16,0.29c0.14,0,0.3,0,0.3,0.16c0.63,0.15,1.08,0.3,1.55,0.62
			c0.3,0.3,0.6,0.46,0.92,0.61c0.31,0.31,0.62,0.45,1.07,0.45h0.78h0.31h0.15c0.62-0.3,1.08-0.45,1.39-0.9
			c0.61-0.47,1.07-0.77,1.53-1.22c0.46-0.32,0.62-0.63,0.93-0.93c0.3-0.31,0.46-0.61,0.62-1.07c0.16-0.15,0.16-0.31,0.31-0.46
			c0.29-0.47,0.6-0.76,0.76-1.07c0.31-0.46,0.46-0.77,0.77-1.24c0.31-0.29,0.45-0.44,0.77-0.76c0.16-0.31,0.16-0.62,0.3-0.92v-0.3
			v-0.3c-0.15-0.15-0.15-0.31-0.15-0.46L84.14,24.52z"/>
		<path id="XMLID_280_" class="st0" d="M77.37,55.49c-0.46-0.93-1.07-1.39-1.99-1.85c-0.47-0.15-0.78-0.29-1.39-0.29
			c-0.76,0.14-1.54,0-2.47,0h-0.3c-0.16,0-0.16,0-0.31,0.14c-0.15,0-0.15,0-0.15,0.15c-0.15,0-0.15,0-0.15,0.17l-0.3,0.3
			c-0.16,0-0.16,0.15-0.31,0.15c0,0-0.15,0.15-0.31,0.15c-0.62,0.16-1.07,0.31-1.54,0.62l-0.3,0.16c0,0-0.15,0.15-0.15,0.31
			c-0.15,0.76-0.3,1.38-0.3,2.13c0,0.77-0.16,1.24-0.16,2v0.45c0,0.17,0.16,0.17,0.16,0.31c0,0.16,0.15,0.31,0.15,0.45L67.68,61
			c0.31,0.3,0.61,0.61,0.93,0.76c0.61,0.31,1.23,0.46,2,0.76c0.61,0.3,1.23,0.45,1.84,0.45c1.39,0,2.46,0,3.7,0.15
			c0.45,0.15,0.92,0.15,1.38,0c0,0,0.16-0.15,0.31-0.15c0-0.16,0.14-0.16,0.14-0.3c0.31-0.31,0.46-0.61,0.77-0.77
			c0-0.15,0.15-0.3,0.3-0.3c0.32-0.31,0.61-0.61,0.77-1.07c0.16-0.29,0.16-0.61,0.16-0.92c-0.32-0.77-0.62-1.54-1.08-2.3
			C78.29,56.7,77.84,56.1,77.37,55.49"/>
		<path id="XMLID_279_" class="st0" d="M63.21,36.93c-0.3-2.74-0.91-5.04-1.83-7.81c-0.16-0.77-0.31-1.38-0.47-2.14
			c-0.46-1.08-0.77-1.84-1.53-2.6c-0.93-1.84-2.31-3.07-4.01-3.98c-2.15-1.23-4.15-1.84-6.61-2.3h-6.77
			c-0.47,0.15-0.77,0.15-1.23,0.3c-3.38,0.46-6,1.38-8.76,3.08c-0.76,0.45-1.23,0.91-2,1.21c-1.84,0.92-3.39,2.15-4.78,3.84
			c-0.92,1.37-1.38,2.61-1.68,4.3c-0.16,1.7-0.46,3.21-0.93,4.9c-0.45,1.68-0.61,3.21-0.91,5.05c0,0.92,0,1.68,0.16,2.6
			c0.15,1.7,0.45,2.93,0.92,4.44c0.31,0.92,0.77,1.69,1.22,2.6c0.48,1.4,1.09,2.46,2.02,3.53c0.3,0.31,0.61,0.61,0.76,1.07
			c0.32,0.47,0.61,0.77,1.08,1.08c0.77,0.77,1.38,1.22,2.16,1.83c0.47,0.46,0.77,0.93,1.24,1.22c1.06,0.61,1.98,1.09,3.06,1.39
			c0.31,0.16,0.62,0.16,0.93,0.3c0.3,0.17,0.62,0.32,0.92,0.32c0.45,0.15,1.08,0.15,1.54,0.31c0.61,0.15,1.22,0.3,1.84,0.3h3.69
			h1.23c1.23-0.15,2.31-0.46,3.54-0.76c0.31-0.17,0.77-0.31,1.08-0.47c1.06-0.29,1.84-0.78,2.77-1.22c1.07-0.61,1.84-1.23,2.92-1.84
			c1.85-0.92,3.38-1.98,4.77-3.53c0.47-0.46,0.76-0.76,1.07-1.37c0.46-0.76,0.78-1.54,1.23-2.3c1.24-1.68,1.86-3.53,2.16-5.68
			c0.16-1.37,0-2.45-0.15-3.83C63.53,39.39,63.37,38.31,63.21,36.93"/>
		<path id="XMLID_278_" class="st0" d="M46.76,72.02c-0.15,0-0.15-0.15-0.15-0.15c-0.15-0.3-0.15-0.45-0.31-0.61
			c-0.3-0.62-0.78-0.93-1.23-1.23c-0.31-0.16-0.62-0.3-0.93-0.46c-0.31,0-0.61-0.16-0.92-0.16c-0.76-0.16-1.38-0.16-2.15,0
			c-0.47,0-0.77,0-1.24,0.31c-0.15,0-0.15,0.15-0.31,0.3c-0.14,0.15-0.3,0.46-0.46,0.77c-0.31,0.46-0.46,0.91-0.62,1.37
			c-0.16,0.78-0.47,1.38-0.62,2c0,0.15-0.15,0.3-0.15,0.45c-0.31,0.32-0.47,0.78-0.61,1.23c-0.16,0.46-0.16,0.9,0,1.54
			c0.14,0.29,0.14,0.45,0.3,0.76c0.46,1.22,1.08,1.99,2.01,2.76c0.3,0.3,0.77,0.3,1.23,0l0.15-0.15l0.32-0.31
			c0.15-0.15,0.29-0.31,0.45-0.47l0.47-0.14c0.31-0.16,0.62-0.32,1.08-0.46c0.62-0.47,1.07-1.07,1.38-1.69
			c0.78-0.6,1.23-1.37,1.71-2.14c0.61-0.92,0.91-2.13,0.61-3.22V72.02z"/>
		<path id="XMLID_277_" class="st0" d="M23.21,16.1c0.32,0.3,0.63,0.46,0.95,0.61c0.3,0,0.44,0.16,0.76,0.16h2.77
			c0.15,0,0.31-0.16,0.47-0.16c0.45-0.15,0.9-0.46,1.38-0.77c0.46-0.3,0.76-0.61,0.92-1.06c0.3-0.46,0.3-0.77,0.46-1.24
			c0.31-0.6,0.31-1.07,0.31-1.67c-0.16-0.93-0.31-1.55-0.63-2.3c0-0.16,0-0.16-0.14-0.3V9.21C30.14,8.9,30,8.75,29.69,8.44
			c-0.63-0.61-1.25-0.92-1.85-1.22c-1.39-0.93-2.76-1.38-4.47-1.53c-0.45,0-0.77,0.15-1.07,0.31c-0.62,0.3-1.08,0.46-1.85,0.76
			c0,0-0.15,0-0.15,0.17c-0.16,0-0.16,0.14-0.33,0.3c0,0.16-0.14,0.46-0.14,0.61c-0.16,1.23-0.16,2.14,0,3.22
			c0.14,0.45,0.14,0.77,0.47,1.22l0.3,0.62c0.14,0.31,0.46,0.76,0.61,1.08c0.15,0.15,0.15,0.15,0.15,0.3c0,0,0.16,0,0.16,0.16
			l0.3,0.15C22.45,15.04,22.76,15.5,23.21,16.1"/>
		<path id="XMLID_276_" class="st0" d="M17.07,57.32c-1.06-0.61-1.85-1.07-2.93-1.53H14h-0.62c-0.3,0.15-0.62,0.31-0.92,0.46
			c-0.46,0.45-0.92,0.76-1.24,1.37c-0.31,0.47-0.61,0.77-0.92,1.08c-0.47,0.3-0.62,0.77-0.79,1.06c-0.3,0.78-0.6,1.4-0.9,2.01
			c-0.16,0.15-0.32,0.31-0.46,0.6c-0.31,0.46-0.63,1.08-0.93,1.69v0.32c-0.15,0.15-0.15,0.15-0.15,0.3c0,0.15,0,0.15,0.15,0.3
			l0.16,0.47c0.29,0.61,0.46,1.06,0.61,1.83v0.31c0,0.14,0.16,0.14,0.3,0.31c0.16,0.14,0.32,0.14,0.47,0.14c0.61,0.15,1.08,0,1.69,0
			c1.23-0.45,2.31-0.77,3.54-1.22c0.77-0.32,1.38-0.62,1.84-1.23c0.77-0.92,1.23-1.68,1.69-2.76c0.16-0.31,0.16-0.46,0.31-0.92
			c0-0.3,0-0.61-0.15-0.91v-1.38c0.15-0.31,0.15-0.62,0.15-1.08v-0.31c0-0.16-0.15-0.31-0.15-0.31
			C17.52,57.62,17.23,57.47,17.07,57.32"/>
		<path id="XMLID_275_" class="st0" d="M7.99,39.54c0.62-0.15,1.23-0.31,1.85-0.31c0.61,0,1.07-0.15,1.38-0.6
			c0.61-0.61,1.24-1.23,1.7-2c0.31-0.61,0.31-1.23,0.31-1.85c-0.15-0.6-0.47-1.22-0.76-1.84c-0.15-0.6-0.62-1.06-1.24-1.52
			l-0.16-0.15c-0.3-0.15-0.77-0.3-1.08-0.46c-2.77-0.61-5.38,0-7.53,1.53c-0.92,0.46-1.39,1.07-1.85,1.99
			c-0.14,0.45-0.3,0.92-0.46,1.53C0,36.02,0,36.17,0,36.32v0.16c0.15,0.31,0.3,0.61,0.61,0.92c0.47,0.31,0.77,0.62,1.23,0.91
			c0.63,0.47,1.24,0.78,1.85,0.92c0.62,0,1.08,0.16,1.7,0.16C6.3,39.54,7.07,39.69,7.99,39.54"/>
	</g>
</g>
</svg>
