<?xml version="1.0" encoding="utf-8"?>
<!-- Generator: Adobe Illustrator 24.0.3, SVG Export Plug-In . SVG Version: 6.00 Build 0)  -->
<svg version="1.1" id="Capa_1" xmlns="http://www.w3.org/2000/svg" xmlns:xlink="http://www.w3.org/1999/xlink" x="0px" y="0px"
	 viewBox="0 0 1095.32 553.67" style="enable-background:new 0 0 1095.32 553.67;" xml:space="preserve">
<style type="text/css">
	.st0{fill:#F82400;}
</style>
<g>
	<g>
		<g>
			<path class="st0" d="M386.39,0.8h53.18c14.12,0,23.27,6.41,23.27,23.17v41.4c0,12.32-9.14,17.99-13.57,19.22
				c5.54,1.23,16.34,6.65,16.34,21.44v50.27c0,18.48-8.86,27.85-26.31,27.85h-52.9V0.8z M421.56,23.96v52.25h2.49
				c2.77,0,4.15-1.48,4.15-4.68V28.4c0-3.2-0.55-4.44-4.15-4.44H421.56z M421.56,98.88v61.36h3.32c3.6,0,4.15-1.48,4.15-4.68v-51.75
				c0-3.7-0.83-4.93-4.15-4.93H421.56z"/>
			<path class="st0" d="M505.75,184.15h-35.17V0.8h35.17V184.15z"/>
			<path class="st0" d="M570.56,0.8v28.09h-24.93V73.5h21.05v29.08h-21.05v52.99h25.76v28.59h-60.1V0.8H570.56z"/>
			<path class="st0" d="M611.82,0.8l13.57,99.32L625.12,0.8h29.08v183.35h-32.4L605.45,74.24l0.28,109.91h-29.36V0.8H611.82z"/>
			<path class="st0" d="M700.73,151.13h-11.91l-1.94,33.02h-30.19L673.86,0.8h44.31l18.56,183.35h-34.07L700.73,151.13z
				 M694.91,54.52l-4.15,69.74h8.31L694.91,54.52z"/>
			<path class="st0" d="M774.12,0.8l0.28,154.27h22.16l-0.28,29.08h-57.05V0.8H774.12z"/>
		</g>
	</g>
	<g>
		<g>
			<path class="st0" d="M0,375.35h15.81c4.8,0,8.56,2.45,8.56,9.35v45.77c0,6.9-3.49,9.87-8.38,9.87H0V375.35z M10.83,431.16h1.05
				c1.05,0,1.31-0.7,1.31-2.18v-42.71c0-1.31-0.26-2.01-1.31-2.01h-1.05V431.16z"/>
			<path class="st0" d="M44.8,375.35v9.96h-7.86v15.81h6.64v10.31h-6.64v18.78h8.12v10.13H26.11v-64.98H44.8z"/>
			<path class="st0" d="M55.42,228.26h60.43v32.5H90.77v51.88h20.81l0.28,33.35H90.77v94.35H55.42V228.26z"/>
			<path class="st0" d="M202.51,401.28c0,26.51-14.54,41.05-38.2,41.05h-5.99c-25.08,0-38.48-14.82-38.48-41.05V268.16
				c0-26.22,11.4-41.9,38.48-41.9h5.7c27.08,0,38.48,16.53,38.48,41.9V401.28z M165.45,264.17c0-4.28-1.42-6.27-4.28-6.27
				c-2.56,0-3.99,2-3.99,6.27v140.24c0,3.71,1.43,5.7,3.99,5.7c2.85,0,4.28-2,4.28-5.7V264.17z"/>
			<path class="st0" d="M222.18,260.75h-16.25v-32.5h68.13v32.5h-16.25v179.58h-35.63V260.75z"/>
			<path class="st0" d="M360.14,401.28c0,26.51-14.54,41.05-38.2,41.05h-5.99c-25.08,0-38.48-14.82-38.48-41.05V268.16
				c0-26.22,11.4-41.9,38.48-41.9h5.7c27.08,0,38.48,16.53,38.48,41.9V401.28z M323.09,264.17c0-4.28-1.43-6.27-4.28-6.27
				c-2.57,0-3.99,2-3.99,6.27v140.24c0,3.71,1.43,5.7,3.99,5.7c2.85,0,4.28-2,4.28-5.7V264.17z"/>
			<path class="st0" d="M394.06,442.33c-19.1,0-28.22-16.25-28.22-35.06V263.03c0-19.67,9.69-36.77,38.2-36.77h4.85
				c28.79,0,37.06,16.82,37.06,33.92v47.6h-34.78v-46.18c0-3.42-0.86-5.42-4.28-5.42c-2.57,0-3.99,1.71-3.99,5.42v144.81
				c0,4.28,1.71,6.56,5.13,6.56s5.13-2.28,5.13-6.56v-63.28h-7.41v-27.65h41.62v124.85h-24.23c-0.86-3.14-2.57-10.83-3.71-13.4
				c-4.85,7.7-12.26,15.39-24.51,15.39H394.06z"/>
			<path class="st0" d="M489.27,440.33h-36.2V228.26h56.15c12.54,0,22.52,7.98,22.52,25.37v49.88c0,14.54-6.84,20.24-12.83,22.8
				c5.99,2.57,13.4,8.55,13.4,19.67v84.09c0,4.28,0.57,7.41,1.71,9.41v0.86h-35.63c-1.43-2-2.28-4.85-2.28-8.84v-79.53
				c0-3.14-0.57-4.85-3.99-4.85h-2.85V440.33z M489.27,316.91h2.85c2.57,0,3.99-1.71,3.99-4.85V259.9c0-3.42-0.57-4.85-3.71-4.85
				h-3.13V316.91z"/>
			<path class="st0" d="M580.48,402.14h-12.26l-2,38.2h-31.07l17.67-212.08h45.61l19.1,212.08h-35.06L580.48,402.14z M574.5,290.4
				l-4.28,80.67h8.55L574.5,290.4z"/>
			<path class="st0" d="M620.1,228.26h60.43v32.5h-25.09v51.88h20.81l0.29,33.35h-21.09v94.35H620.1V228.26z"/>
			<path class="st0" d="M721.87,440.33h-36.2V228.26h36.2V440.33z M699.92,197.19h29.08l-11.4,27.08h-28.22L699.92,197.19z"/>
			<path class="st0" d="M769.75,402.14h-12.26l-2,38.2h-31.07l17.67-212.08h45.61l19.1,212.08h-35.06L769.75,402.14z M763.77,290.4
				l-4.28,80.67h8.55L763.77,290.4z"/>
		</g>
	</g>
	<g>
		<path class="st0" d="M523.65,551.19H347.81v-16.4c0-13.64,0-45.57,77.94-62.23c4.95-1.15,9.81-2.16,14.44-2.99
			c13.58-2.72,14.24-3.98,14.24-5.97v-0.17c0-1.4,0-5.13-18.21-5.13c-9.16,0-15.52,1.71-18.89,5.09c-2.79,2.8-2.79,6.1-2.79,7.68
			v1.13h-65.08v-1.83c0-8.38,1.34-20.64,12.89-30.46c12.81-10.88,35.72-16.4,68.07-16.4h7.95c32.84,0,55.17,3.77,68.29,11.52
			c10.72,6.34,15.5,15.09,15.5,28.39v1.32c0,24.3-21.63,31.32-73.37,38.74c-2.77,0.36-5,0.75-7.16,1.14
			c-1.8,0.32-3.5,0.62-5.27,0.85c-22.56,3.74-31.25,6.14-32.68,9.27h63.34v-12.09h56.63V551.19z M349.81,549.19h171.84v-44.52
			h-52.63v12.09h-67.56v-1c0-5.17,7.12-7.69,34.61-12.24c1.76-0.23,3.44-0.53,5.21-0.84c2.08-0.37,4.44-0.79,7.24-1.15
			c52.87-7.58,71.64-14.27,71.64-36.76v-1.32c0-19.69-9.91-37.91-81.78-37.91h-7.95c-70.57,0-78.92,25.45-78.97,44.69h61.09
			c0.06-1.98,0.47-5.33,3.36-8.23c3.76-3.77,10.6-5.68,20.31-5.68c14.35,0,20.21,2.06,20.21,7.13v0.17c0,3.91-2.82,5.32-15.87,7.93
			c-4.61,0.82-9.44,1.82-14.37,2.97c-76.38,16.32-76.38,47.12-76.38,60.28V549.19z"/>
		<path class="st0" d="M627.77,553.67h-7.78c-77.73,0-94.05-34.04-94.05-62.59v-4.97c0-28.55,16.32-62.59,94.05-62.59h7.78
			c77.59,0,93.88,34.04,93.88,62.59v4.97C721.65,519.64,705.37,553.67,627.77,553.67z M619.99,425.53
			c-60.22,0-92.05,20.95-92.05,60.59v4.97c0,50.08,50.06,60.59,92.05,60.59h7.78c41.92,0,91.88-10.51,91.88-60.59v-4.97
			c0-39.64-31.77-60.59-91.88-60.59H619.99z M623.8,514.1c-31.52,0-33.12-20.97-33.12-25.17v-1.99c0-5.71,2.39-24.34,33.12-24.34
			c30.73,0,33.12,18.63,33.12,24.34v1.99C656.92,501.1,648.22,514.1,623.8,514.1z M623.8,464.6c-28.09,0-31.12,15.63-31.12,22.34
			v1.99c0,11.2,8.17,23.17,31.12,23.17c28.88,0,31.12-17.74,31.12-23.17v-1.99C654.92,481.7,652.67,464.6,623.8,464.6z"/>
		<path class="st0" d="M897.31,551.19H721.47v-16.4c0-13.64,0-45.57,77.94-62.23c4.95-1.15,9.81-2.16,14.44-2.99
			c13.58-2.72,14.24-3.98,14.24-5.97v-0.17c0-1.4,0-5.13-18.21-5.13c-9.16,0-15.52,1.71-18.9,5.09c-2.79,2.8-2.79,6.1-2.79,7.68
			v1.13h-65.08v-1.83c0-8.38,1.34-20.64,12.89-30.46c12.81-10.88,35.72-16.4,68.07-16.4h7.95c32.84,0,55.17,3.77,68.29,11.52
			c10.72,6.34,15.5,15.09,15.5,28.39v1.32c0,24.3-21.63,31.32-73.38,38.74c-2.77,0.36-5,0.75-7.16,1.14
			c-1.8,0.32-3.5,0.62-5.27,0.85c-22.56,3.74-31.25,6.14-32.69,9.27h63.34v-12.09h56.63V551.19z M723.47,549.19h171.84v-44.52
			h-52.63v12.09h-67.56v-1c0-5.17,7.12-7.69,34.61-12.24c1.76-0.23,3.43-0.53,5.21-0.84c2.08-0.37,4.44-0.79,7.24-1.15
			c52.87-7.58,71.64-14.27,71.64-36.76v-1.32c0-19.69-9.91-37.91-81.78-37.91h-7.95c-70.57,0-78.92,25.45-78.97,44.69h61.09
			c0.06-1.98,0.47-5.33,3.36-8.23c3.76-3.77,10.6-5.68,20.31-5.68c14.35,0,20.21,2.06,20.21,7.13v0.17c0,3.91-2.82,5.32-15.87,7.93
			c-4.61,0.82-9.44,1.82-14.37,2.97c-76.38,16.32-76.38,47.12-76.38,60.28V549.19z"/>
		<path class="st0" d="M1001.43,553.67h-7.78c-77.73,0-94.04-34.04-94.04-62.59v-4.97c0-28.55,16.32-62.59,94.04-62.59h7.78
			c77.59,0,93.88,34.04,93.88,62.59v4.97C1095.32,519.64,1079.03,553.67,1001.43,553.67z M993.65,425.53
			c-60.22,0-92.04,20.95-92.04,60.59v4.97c0,50.08,50.05,60.59,92.04,60.59h7.78c41.92,0,91.88-10.51,91.88-60.59v-4.97
			c0-39.64-31.77-60.59-91.88-60.59H993.65z M997.46,514.1c-31.52,0-33.12-20.97-33.12-25.17v-1.99c0-5.71,2.39-24.34,33.12-24.34
			s33.12,18.63,33.12,24.34v1.99C1030.58,501.1,1021.88,514.1,997.46,514.1z M997.46,464.6c-28.09,0-31.12,15.63-31.12,22.34v1.99
			c0,11.2,8.17,23.17,31.12,23.17c28.88,0,31.12-17.74,31.12-23.17v-1.99C1028.58,481.7,1026.34,464.6,997.46,464.6z"/>
	</g>
	<g>
		<path class="st0" d="M138.34,180.41H47.02V86.62H1.65V41.4l0.97-0.03c31.42-0.89,51.27-13.06,60.68-37.21l0.25-0.64h74.79V180.41z
			 M49.02,178.41h87.32V5.53H64.92c-9.74,24.3-29.79,36.68-61.27,37.81v41.28h45.37V178.41z"/>
		<path class="st0" d="M283.55,183.94h-11.05c-44.33,0-76.85-6.94-96.65-20.63c-17.7-12.23-21.41-27.14-21.41-37.49v-2.18h89.96
			l0.29,0.5c1.93,3.31,8.72,11.02,29.93,11.02c19.42,0,40.15-8.14,40.6-30.91c-18.28,12.4-47.21,15.05-68.57,15.05h-2.82
			c-33.79,0-59.19-5.31-75.5-15.79c-14.83-9.53-22.35-23.37-22.35-41.15v-2.12c0-18.71,7.16-31.95,22.53-41.66
			C188.31,6.08,221.25,0,269.22,0h11.28c84.46,0,129.11,29.85,129.11,86.33v5.64c0,23.69-6.2,42.33-18.96,56.98
			C370.42,172.17,334.39,183.94,283.55,183.94z M156.45,125.64v0.18c0,9.87,3.56,24.11,20.55,35.85
			c19.46,13.45,51.6,20.27,95.51,20.27h11.05c50.24,0,85.76-11.54,105.58-34.3c12.43-14.27,18.47-32.48,18.47-55.67v-5.64
			c0-21.65-6.71-39.45-19.96-52.89C367.1,12.58,331.05,2,280.5,2h-11.28c-47.58,0-80.17,5.98-99.63,18.27
			c-14.74,9.31-21.6,22.01-21.6,39.97v2.12c0,36.46,32.25,54.94,95.85,54.94h2.82c21.69,0,51.27-2.74,68.98-15.79l1.59-1.17v3.15
			c0,16.28-11.19,33.67-42.61,33.67c-21.28,0-28.89-7.69-31.35-11.52H156.45z M275.33,77.69c-25.22,0-36.96-4.72-36.96-14.87v-0.23
			c0-10.59,11.05-15.1,36.96-15.1c26.76,0,37.67,4.38,37.67,15.1v0.23C313,69.74,308.72,77.69,275.33,77.69z M275.33,49.48
			c-30.99,0-34.96,7-34.96,13.1v0.23c0,3.18,0,12.87,34.96,12.87c31.62,0,35.67-6.88,35.67-12.87v-0.23
			C311,55.78,306.68,49.48,275.33,49.48z"/>
	</g>
</g>
</svg>
