<?xml version="1.0" encoding="utf-8"?>
<!-- Generator: Adobe Illustrator 24.0.3, SVG Export Plug-In . SVG Version: 6.00 Build 0)  -->
<svg version="1.1" id="Capa_1" xmlns="http://www.w3.org/2000/svg" xmlns:xlink="http://www.w3.org/1999/xlink" x="0px" y="0px"
	 viewBox="0 0 1095.3 553.7" style="enable-background:new 0 0 1095.3 553.7;" xml:space="preserve">
<style type="text/css">
	.st0{fill:#FFFFFF;}
</style>
<g>
	<g>
		<g>
			<path class="st0" d="M386.4,0.8h53.2c14.1,0,23.3,6.4,23.3,23.2v41.4c0,12.3-9.1,18-13.6,19.2c5.5,1.2,16.3,6.7,16.3,21.4v50.3
				c0,18.5-8.9,27.9-26.3,27.9h-52.9L386.4,0.8L386.4,0.8z M421.6,24v52.2h2.5c2.8,0,4.1-1.5,4.1-4.7V28.4c0-3.2-0.5-4.4-4.1-4.4
				H421.6z M421.6,98.9v61.4h3.3c3.6,0,4.1-1.5,4.1-4.7v-51.8c0-3.7-0.8-4.9-4.1-4.9H421.6z"/>
			<path class="st0" d="M505.8,184.1h-35.2V0.8h35.2V184.1z"/>
			<path class="st0" d="M570.6,0.8v28.1h-24.9v44.6h21v29.1h-21v53h25.8v28.6h-60.1V0.8H570.6z"/>
			<path class="st0" d="M611.8,0.8l13.6,99.3l-0.3-99.3h29.1v183.4h-32.4L605.5,74.2l0.3,109.9h-29.4V0.8H611.8z"/>
			<path class="st0" d="M700.7,151.1h-11.9l-1.9,33h-30.2L673.9,0.8h44.3l18.6,183.4h-34.1L700.7,151.1z M694.9,54.5l-4.2,69.7h8.3
				L694.9,54.5z"/>
			<path class="st0" d="M774.1,0.8l0.3,154.3h22.2l-0.3,29.1h-57V0.8H774.1z"/>
		</g>
	</g>
	<g>
		<g>
			<path class="st0" d="M0,375.4h15.8c4.8,0,8.6,2.5,8.6,9.4v45.8c0,6.9-3.5,9.9-8.4,9.9H0V375.4z M10.8,431.2h1.1
				c1.1,0,1.3-0.7,1.3-2.2v-42.7c0-1.3-0.3-2-1.3-2h-1.1C10.8,384.3,10.8,431.2,10.8,431.2z"/>
			<path class="st0" d="M44.8,375.4v10h-7.9v15.8h6.6v10.3h-6.6v18.8h8.1v10.1H26.1v-65L44.8,375.4L44.8,375.4z"/>
			<path class="st0" d="M55.4,228.3h60.4v32.5H90.8v51.9h20.8l0.3,33.4H90.8v94.4H55.4V228.3z"/>
			<path class="st0" d="M202.5,401.3c0,26.5-14.5,41-38.2,41h-6c-25.1,0-38.5-14.8-38.5-41V268.2c0-26.2,11.4-41.9,38.5-41.9h5.7
				c27.1,0,38.5,16.5,38.5,41.9L202.5,401.3L202.5,401.3z M165.4,264.2c0-4.3-1.4-6.3-4.3-6.3c-2.6,0-4,2-4,6.3v140.2
				c0,3.7,1.4,5.7,4,5.7c2.9,0,4.3-2,4.3-5.7V264.2z"/>
			<path class="st0" d="M222.2,260.8h-16.2v-32.5h68.1v32.5h-16.2v179.6h-35.6V260.8z"/>
			<path class="st0" d="M360.1,401.3c0,26.5-14.5,41-38.2,41h-6c-25.1,0-38.5-14.8-38.5-41V268.2c0-26.2,11.4-41.9,38.5-41.9h5.7
				c27.1,0,38.5,16.5,38.5,41.9L360.1,401.3L360.1,401.3z M323.1,264.2c0-4.3-1.4-6.3-4.3-6.3c-2.6,0-4,2-4,6.3v140.2
				c0,3.7,1.4,5.7,4,5.7c2.9,0,4.3-2,4.3-5.7V264.2z"/>
			<path class="st0" d="M394.1,442.3c-19.1,0-28.2-16.2-28.2-35.1V263c0-19.7,9.7-36.8,38.2-36.8h4.9c28.8,0,37.1,16.8,37.1,33.9
				v47.6h-34.8v-46.2c0-3.4-0.9-5.4-4.3-5.4c-2.6,0-4,1.7-4,5.4v144.8c0,4.3,1.7,6.6,5.1,6.6s5.1-2.3,5.1-6.6v-63.3h-7.4v-27.6h41.6
				v124.9h-24.2c-0.9-3.1-2.6-10.8-3.7-13.4c-4.9,7.7-12.3,15.4-24.5,15.4L394.1,442.3L394.1,442.3z"/>
			<path class="st0" d="M489.3,440.3h-36.2V228.3h56.1c12.5,0,22.5,8,22.5,25.4v49.9c0,14.5-6.8,20.2-12.8,22.8
				c6,2.6,13.4,8.5,13.4,19.7v84.1c0,4.3,0.6,7.4,1.7,9.4v0.9h-35.6c-1.4-2-2.3-4.9-2.3-8.8V352c0-3.1-0.6-4.9-4-4.9h-2.9
				L489.3,440.3L489.3,440.3z M489.3,316.9h2.9c2.6,0,4-1.7,4-4.9v-52.2c0-3.4-0.6-4.9-3.7-4.9h-3.1V316.9z"/>
			<path class="st0" d="M580.5,402.1h-12.3l-2,38.2h-31.1l17.7-212.1h45.6l19.1,212.1h-35.1L580.5,402.1z M574.5,290.4l-4.3,80.7
				h8.5L574.5,290.4z"/>
			<path class="st0" d="M620.1,228.3h60.4v32.5h-25.1v51.9h20.8l0.3,33.4h-21.1v94.4h-35.3V228.3z"/>
			<path class="st0" d="M721.9,440.3h-36.2V228.3h36.2V440.3z M699.9,197.2H729l-11.4,27.1h-28.2L699.9,197.2z"/>
			<path class="st0" d="M769.8,402.1h-12.3l-2,38.2h-31.1l17.7-212.1h45.6l19.1,212.1h-35.1L769.8,402.1z M763.8,290.4l-4.3,80.7
				h8.5L763.8,290.4z"/>
		</g>
	</g>
	<g>
		<path class="st0" d="M523.7,551.2H347.8v-16.4c0-13.6,0-45.6,77.9-62.2c5-1.1,9.8-2.2,14.4-3c13.6-2.7,14.2-4,14.2-6v-0.2
			c0-1.4,0-5.1-18.2-5.1c-9.2,0-15.5,1.7-18.9,5.1c-2.8,2.8-2.8,6.1-2.8,7.7v1.1h-65.1v-1.8c0-8.4,1.3-20.6,12.9-30.5
			c12.8-10.9,35.7-16.4,68.1-16.4h8c32.8,0,55.2,3.8,68.3,11.5c10.7,6.3,15.5,15.1,15.5,28.4v1.3c0,24.3-21.6,31.3-73.4,38.7
			c-2.8,0.4-5,0.8-7.2,1.1c-1.8,0.3-3.5,0.6-5.3,0.9c-22.6,3.7-31.2,6.1-32.7,9.3H467v-12.1h56.6V551.2z M349.8,549.2h171.8v-44.5
			H469v12.1h-67.6v-1c0-5.2,7.1-7.7,34.6-12.2c1.8-0.2,3.4-0.5,5.2-0.8c2.1-0.4,4.4-0.8,7.2-1.1c52.9-7.6,71.6-14.3,71.6-36.8v-1.3
			c0-19.7-9.9-37.9-81.8-37.9h-8c-70.6,0-78.9,25.5-79,44.7h61.1c0.1-2,0.5-5.3,3.4-8.2c3.8-3.8,10.6-5.7,20.3-5.7
			c14.4,0,20.2,2.1,20.2,7.1v0.2c0,3.9-2.8,5.3-15.9,7.9c-4.6,0.8-9.4,1.8-14.4,3c-76.4,16.3-76.4,47.1-76.4,60.3L349.8,549.2
			L349.8,549.2z"/>
		<path class="st0" d="M627.8,553.7H620c-77.7,0-94-34-94-62.6v-5c0-28.5,16.3-62.6,94-62.6h7.8c77.6,0,93.9,34,93.9,62.6v5
			C721.7,519.6,705.4,553.7,627.8,553.7z M620,425.5c-60.2,0-92,21-92,60.6v5c0,50.1,50.1,60.6,92,60.6h7.8
			c41.9,0,91.9-10.5,91.9-60.6v-5c0-39.6-31.8-60.6-91.9-60.6H620z M623.8,514.1c-31.5,0-33.1-21-33.1-25.2v-2
			c0-5.7,2.4-24.3,33.1-24.3s33.1,18.6,33.1,24.3v2C656.9,501.1,648.2,514.1,623.8,514.1z M623.8,464.6c-28.1,0-31.1,15.6-31.1,22.3
			v2c0,11.2,8.2,23.2,31.1,23.2c28.9,0,31.1-17.7,31.1-23.2v-2C654.9,481.7,652.7,464.6,623.8,464.6z"/>
		<path class="st0" d="M897.3,551.2H721.5v-16.4c0-13.6,0-45.6,77.9-62.2c5-1.1,9.8-2.2,14.4-3c13.6-2.7,14.2-4,14.2-6v-0.2
			c0-1.4,0-5.1-18.2-5.1c-9.2,0-15.5,1.7-18.9,5.1c-2.8,2.8-2.8,6.1-2.8,7.7v1.1h-65.1v-1.8c0-8.4,1.3-20.6,12.9-30.5
			c12.8-10.9,35.7-16.4,68.1-16.4h8c32.8,0,55.2,3.8,68.3,11.5c10.7,6.3,15.5,15.1,15.5,28.4v1.3c0,24.3-21.6,31.3-73.4,38.7
			c-2.8,0.4-5,0.8-7.2,1.1c-1.8,0.3-3.5,0.6-5.3,0.9c-22.6,3.7-31.2,6.1-32.7,9.3h63.3v-12.1h56.6L897.3,551.2L897.3,551.2z
			 M723.5,549.2h171.8v-44.5h-52.6v12.1h-67.6v-1c0-5.2,7.1-7.7,34.6-12.2c1.8-0.2,3.4-0.5,5.2-0.8c2.1-0.4,4.4-0.8,7.2-1.1
			c52.9-7.6,71.6-14.3,71.6-36.8v-1.3c0-19.7-9.9-37.9-81.8-37.9h-8c-70.6,0-78.9,25.5-79,44.7h61.1c0.1-2,0.5-5.3,3.4-8.2
			c3.8-3.8,10.6-5.7,20.3-5.7c14.3,0,20.2,2.1,20.2,7.1v0.2c0,3.9-2.8,5.3-15.9,7.9c-4.6,0.8-9.4,1.8-14.4,3
			c-76.4,16.3-76.4,47.1-76.4,60.3L723.5,549.2L723.5,549.2z"/>
		<path class="st0" d="M1001.4,553.7h-7.8c-77.7,0-94-34-94-62.6v-5c0-28.5,16.3-62.6,94-62.6h7.8c77.6,0,93.9,34,93.9,62.6v5
			C1095.3,519.6,1079,553.7,1001.4,553.7z M993.7,425.5c-60.2,0-92,21-92,60.6v5c0,50.1,50,60.6,92,60.6h7.8
			c41.9,0,91.9-10.5,91.9-60.6v-5c0-39.6-31.8-60.6-91.9-60.6H993.7z M997.5,514.1c-31.5,0-33.1-21-33.1-25.2v-2
			c0-5.7,2.4-24.3,33.1-24.3c30.7,0,33.1,18.6,33.1,24.3v2C1030.6,501.1,1021.9,514.1,997.5,514.1z M997.5,464.6
			c-28.1,0-31.1,15.6-31.1,22.3v2c0,11.2,8.2,23.2,31.1,23.2c28.9,0,31.1-17.7,31.1-23.2v-2C1028.6,481.7,1026.3,464.6,997.5,464.6z
			"/>
	</g>
	<g>
		<path class="st0" d="M138.3,180.4H47V86.6H1.6V41.4l1,0C34,40.5,53.9,28.3,63.3,4.2l0.2-0.6h74.8V180.4z M49,178.4h87.3V5.5H64.9
			C55.2,29.8,35.1,42.2,3.6,43.3v41.3H49C49,84.6,49,178.4,49,178.4z"/>
		<path class="st0" d="M283.5,183.9h-11c-44.3,0-76.9-6.9-96.6-20.6c-17.7-12.2-21.4-27.1-21.4-37.5v-2.2h90l0.3,0.5
			c1.9,3.3,8.7,11,29.9,11c19.4,0,40.1-8.1,40.6-30.9c-18.3,12.4-47.2,15.1-68.6,15.1h-2.8c-33.8,0-59.2-5.3-75.5-15.8
			C153.5,94,146,80.1,146,62.4v-2.1c0-18.7,7.2-32,22.5-41.7C188.3,6.1,221.2,0,269.2,0h11.3C365,0,409.6,29.9,409.6,86.3V92
			c0,23.7-6.2,42.3-19,57C370.4,172.2,334.4,183.9,283.5,183.9z M156.4,125.6v0.2c0,9.9,3.6,24.1,20.6,35.8
			c19.5,13.4,51.6,20.3,95.5,20.3h11c50.2,0,85.8-11.5,105.6-34.3c12.4-14.3,18.5-32.5,18.5-55.7v-5.6c0-21.7-6.7-39.5-20-52.9
			C367.1,12.6,331,2,280.5,2h-11.3c-47.6,0-80.2,6-99.6,18.3c-14.7,9.3-21.6,22-21.6,40v2.1c0,36.5,32.2,54.9,95.9,54.9h2.8
			c21.7,0,51.3-2.7,69-15.8l1.6-1.2v3.2c0,16.3-11.2,33.7-42.6,33.7c-21.3,0-28.9-7.7-31.4-11.5H156.4z M275.3,77.7
			c-25.2,0-37-4.7-37-14.9v-0.2c0-10.6,11.1-15.1,37-15.1c26.8,0,37.7,4.4,37.7,15.1v0.2C313,69.7,308.7,77.7,275.3,77.7z
			 M275.3,49.5c-31,0-35,7-35,13.1v0.2c0,3.2,0,12.9,35,12.9c31.6,0,35.7-6.9,35.7-12.9v-0.2C311,55.8,306.7,49.5,275.3,49.5z"/>
	</g>
</g>
</svg>
