<svg id="Capa_1" data-name="Capa 1" xmlns="http://www.w3.org/2000/svg" viewBox="0 0 238 40"><defs><style>.cls-1{fill:#dd463c;}.cls-2{fill:#390094;}</style></defs><title>logo CELD</title><path class="cls-1" d="M29.9,38.9a18.27,18.27,0,0,0,0-36.3v7.6a10.76,10.76,0,0,1,8.7,10.6,10.61,10.61,0,0,1-8.7,10.4Z"/><rect class="cls-1" x="22.3" y="10.1" width="7.6" height="21"/><path class="cls-1" d="M22.3,38.8V31a10.71,10.71,0,0,1-8.7-10.4A10.92,10.92,0,0,1,22.3,10V2.5a18.25,18.25,0,0,0,0,36.3"/><path class="cls-1" d="M60.2,21.1V18.4a3.68,3.68,0,0,1-3-3.8,3.76,3.76,0,0,1,3-3.7V8.1a6.7,6.7,0,0,0-5.7,7.4,6.58,6.58,0,0,0,5.7,5.6"/><path class="cls-2" d="M68.3,14.6a2.65,2.65,0,1,1-2.7-2.7,2.61,2.61,0,0,1,2.7,2.7m1.5,0a4.15,4.15,0,1,0-4.2,4.1h0a4.08,4.08,0,0,0,4.2-4.1h0m8.3,3.8h1.5V14.5h0a4.1,4.1,0,0,0-8.2,0h0v3.9h1.5V14.6a2.65,2.65,0,1,1,5.3-.3v.3l-.1,3.8Zm5.7-6.3h1.5V10.7H83.8V8.6H82.3v2.1H81v1.4h1.4v6.3h1.5Zm5.6-3.5a1.05,1.05,0,0,0-2.1-.1v.1a1,1,0,0,0,1.1,1,.94.94,0,0,0,1-1m-.2,2.1H87.7v7.7h1.5Zm8.9,3.9h0a2.65,2.65,0,1,1-2.7-2.7,2.69,2.69,0,0,1,2.7,2.7m1.4,4.8h0V14.6a4.15,4.15,0,1,0-4.2,4.1h0a3.92,3.92,0,0,0,2.6-.9v1.4a2.58,2.58,0,0,1-2.6,2.6,2.65,2.65,0,0,1-2.6-2.6H91.2a4.14,4.14,0,0,0,4.2,4.1,4.08,4.08,0,0,0,4.1-3.9m8.5-4.8a2.65,2.65,0,1,1-2.7-2.7,2.61,2.61,0,0,1,2.7,2.7m1.5,0a4.15,4.15,0,1,0-4.2,4.1h0a4.08,4.08,0,0,0,4.2-4.1h0m7.6-.8a2.17,2.17,0,0,1,2.2-1.9,2.08,2.08,0,0,1,2.1,1.9Zm-.1,1.1h5.9v-.2c0-2.3-1.2-4.1-3.6-4.1s-3.8,1.8-3.8,4.2,1.4,4.1,3.8,4.1a4.08,4.08,0,0,0,3.6-2.1l-1.3-.7a2.64,2.64,0,0,1-2.3,1.5,2.69,2.69,0,0,1-2.3-2.7m14.6,3.5h1.5V14.5h0a4.1,4.1,0,0,0-8.2,0h0v3.9h1.5V14.6a2.6,2.6,0,0,1,5.2,0Zm7.5,0h1.5V4.1h-1.5Zm10.1-3.8a2.65,2.65,0,1,1-2.7-2.7,2.69,2.69,0,0,1,2.7,2.7m0,3.8h1.5V10.7h-1.5v.7a4.32,4.32,0,0,0-2.6-.9,4.1,4.1,0,1,0,0,8.2h0a3.92,3.92,0,0,0,2.6-.9Z"/><path class="cls-1" d="M165.1,14.6a6.49,6.49,0,0,0-5.7-6.5v2.7a3.68,3.68,0,0,1,3,3.8,3.76,3.76,0,0,1-3,3.7V10.8h-2.7v7.5h2.7v2.8a6.49,6.49,0,0,0,5.7-6.5"/><path class="cls-2" d="M170.3,33.1a1.81,1.81,0,0,1,3.6,0Zm-1.3.8a3.13,3.13,0,0,0,3.1,3.4,3.49,3.49,0,0,0,3-1.8l-1-.6a2.24,2.24,0,0,1-1.9,1.2,2,2,0,0,1-1.9-2.1h4.9v-.2c0-1.9-1-3.4-3-3.4s-3.2,1.5-3.2,3.5m-13.5,1.4-1,.5a2.39,2.39,0,0,0,2.2,1.5,2.14,2.14,0,0,0,2.2-2.1h0a1.92,1.92,0,0,0-1.5-1.8c-.8-.3-1.5-.6-1.5-1.2,0-.4.3-.6.7-.6a.76.76,0,0,1,.8.6l1-.5a2,2,0,0,0-3.7.7h0c0,.9.5,1.2,1.2,1.6l1.2.6a.67.67,0,0,1,.4.7.9.9,0,0,1-.9.9h0a1.27,1.27,0,0,1-1.1-.9m-33.7-3.7a1,1,0,1,0,1-1h0c-.6-.1-1,.4-1,1m-.3-1h-1.2V37h1.2Zm-14.7,0h-1.1v1.2h1.1V37H108V31.7h1.2V30.5H108V28.7h-1.2Zm-12.4,0H93.2v3.3h0a3.4,3.4,0,0,0,3.6,3.3,3.47,3.47,0,0,0,3.3-3.3h0V30.6H98.9v3.2a2.2,2.2,0,0,1-4.4,0h0Zm-4.7,6.7h1.8V36H89.7a2.2,2.2,0,0,1,0-4.4h1.8V30.4H89.7A3.4,3.4,0,0,0,86.4,34a3.47,3.47,0,0,0,3.3,3.3Zm14.1-12.1h-1.2V37.1h1.2Zm14.3,8.6h0V30.5h-1.2v3.2a2.2,2.2,0,0,1-4.4,0h0V30.5h-1.2v3.3h0a3.37,3.37,0,0,0,3.4,3.4,3.31,3.31,0,0,0,3.4-3.4m12.5,0a2.2,2.2,0,1,1-2.2-2.2,2.16,2.16,0,0,1,2.2,2.2m0-2.6a3.49,3.49,0,0,0-2.2-.8,3.4,3.4,0,0,0,0,6.8,3.49,3.49,0,0,0,2.2-.8V37h1.2V30.6h-1.2Zm13,2.6a2.15,2.15,0,0,1-4.3-.1,2.14,2.14,0,0,1,2.2-2.1,2.2,2.2,0,0,1,2.1,2.2m0,3.2h1.2V26.4h-1.2v4.8a3.49,3.49,0,0,0-2.2-.8,3.4,3.4,0,0,0,0,6.8h0a3.49,3.49,0,0,0,2.2-.8Zm7.8-3.9h-3.6a1.83,1.83,0,0,1,1.8-1.6,1.69,1.69,0,0,1,1.8,1.6m-1.7-2.7c-2.1,0-3.1,1.5-3.1,3.4a3.13,3.13,0,0,0,3.1,3.4,3.49,3.49,0,0,0,3-1.8l-1-.6a2.24,2.24,0,0,1-1.9,1.2,2,2,0,0,1-1.9-2.1h4.9v-.2c-.1-1.8-1.1-3.3-3.1-3.3M166,33.8a2.15,2.15,0,0,1-4.3-.1,2.14,2.14,0,0,1,2.2-2.1,2.2,2.2,0,0,1,2.1,2.2m0-7.4v4.8a3.49,3.49,0,0,0-2.2-.8,3.4,3.4,0,0,0,0,6.8,3.49,3.49,0,0,0,2.2-.8V37h1.2V26.4Zm18.2,4a3.4,3.4,0,0,0-3.3,3.6,3.47,3.47,0,0,0,3.3,3.3H186V36h-1.8a2.2,2.2,0,1,1,0-4.4H186V30.4Zm9.1,3.4a2.15,2.15,0,0,1-4.3-.1,2.14,2.14,0,0,1,2.2-2.1,2.2,2.2,0,0,1,2.1,2.2m0-2.6a3.49,3.49,0,0,0-2.2-.8,3.4,3.4,0,0,0,0,6.8,3.49,3.49,0,0,0,2.2-.8V37h1.2V30.6h-1.2Zm5.3-.8a1.88,1.88,0,0,0-1.9,1.8h0c0,.9.5,1.2,1.2,1.6l1.2.6a.67.67,0,0,1,.4.7.9.9,0,0,1-.9.9h0a1.3,1.3,0,0,1-1.2-.8l-1,.5a2.39,2.39,0,0,0,2.2,1.5,2.14,2.14,0,0,0,2.2-2.1h0a1.92,1.92,0,0,0-1.5-1.8c-.7-.3-1.5-.6-1.5-1.2,0-.4.3-.6.7-.6a.76.76,0,0,1,.8.6l1-.5a1.84,1.84,0,0,0-1.7-1.2m9.6,3.4a2.2,2.2,0,1,1-2.2-2.2,2.16,2.16,0,0,1,2.2,2.2m0,3.2h1.2V30.6h-1.2v.6a3.49,3.49,0,0,0-2.2-.8,3.4,3.4,0,0,0,0,6.8h0a3.49,3.49,0,0,0,2.2-.8Z"/><path class="cls-2" d="M216.4,10.7h-1.5v7.7h1.5Zm-47.2,0h-1.5v7.7h1.5Zm.3-3.5a1.05,1.05,0,0,0-2.1-.1v.1a1,1,0,0,0,1.1,1,1.07,1.07,0,0,0,1-1m7.6,9a2.46,2.46,0,0,0-1.8-2.2c-.9-.4-1.8-.7-1.8-1.4a.86.86,0,0,1,.8-.8,1.2,1.2,0,0,1,1,.7l1.2-.6a2.43,2.43,0,0,0-2.1-1.4,2.24,2.24,0,0,0-2.3,2.2h0c0,1.1.6,1.5,1.5,1.9l1.5.8a.87.87,0,0,1,.5.9,1.11,1.11,0,0,1-1.1,1.1h0a1.5,1.5,0,0,1-1.4-1l-1.3.6a2.85,2.85,0,0,0,2.7,1.7,2.55,2.55,0,0,0,2.6-2.5h0m4.6-4.1h1.5V10.7h-1.5V7.8h-1.5v2.9h-.8v1.4h.8v6.3h1.5Zm10.4,2.5a2.65,2.65,0,1,1-2.7-2.7,2.69,2.69,0,0,1,2.7,2.7m0,3.8h1.5V10.7h-1.5v.7a4.49,4.49,0,0,0-2.7-1,4.1,4.1,0,1,0,0,8.2h0a3.94,3.94,0,0,0,2.7-1Zm10.9,0h1.5V14.5h0a4.15,4.15,0,0,0-8.3,0h0v3.9h1.5V14.6a2.6,2.6,0,1,1,5.2-.2v4Zm7.4.2h2.2V17.1h-2.1a2.53,2.53,0,0,1-2.7-2.5,2.53,2.53,0,0,1,2.5-2.7h2.3V10.4h-2.2a4.19,4.19,0,0,0-4,4.2,4,4,0,0,0,4,4Zm6.3-11.4a1.05,1.05,0,0,0-2.1-.1v.1a1,1,0,0,0,1.1,1,1.07,1.07,0,0,0,1-1m8.7,7.4a2.65,2.65,0,1,1-2.7-2.7,2.69,2.69,0,0,1,2.7,2.7m1.5,3.8V10.7h-1.5v.7a4.32,4.32,0,0,0-2.6-.9,4.1,4.1,0,0,0,0,8.2h0a3.92,3.92,0,0,0,2.6-.9v.7h1.5Z"/></svg>